<svg width="18" height="18" viewBox="0 0 18 18" fill="none" xmlns="http://www.w3.org/2000/svg">
<path fill-rule="evenodd" clip-rule="evenodd" d="M6.02975 0.343699C7.9834 -0.114566 10.0166 -0.114566 11.9703 0.343699C14.7916 1.00549 16.9945 3.20842 17.6563 6.02975C18.1146 7.9834 18.1146 10.0166 17.6563 11.9703C16.9945 14.7916 14.7916 16.9945 11.9703 17.6563C10.0166 18.1146 7.9834 18.1146 6.02975 17.6563C3.20842 16.9945 1.0055 14.7916 0.3437 11.9703C-0.114567 10.0166 -0.114567 7.9834 0.3437 6.02974C1.0055 3.20841 3.20842 1.00549 6.02975 0.343699ZM8.99997 7.0854C9.52867 7.0854 9.95726 6.65681 9.95726 6.12812C9.95726 5.59942 9.52867 5.17083 8.99997 5.17083C8.47128 5.17083 8.04269 5.59942 8.04269 6.12812C8.04269 6.65681 8.47128 7.0854 8.99997 7.0854ZM8.99997 7.80337C9.39649 7.80337 9.71794 8.12481 9.71794 8.52133V12.3505C9.71794 12.747 9.39649 13.0684 8.99997 13.0684C8.60345 13.0684 8.28201 12.747 8.28201 12.3505V8.52133C8.28201 8.12481 8.60345 7.80337 8.99997 7.80337Z" fill="#1DA4EA"/>
</svg>
