<svg width="18" height="18" viewBox="0 0 18 18" fill="none" xmlns="http://www.w3.org/2000/svg">
<path fill-rule="evenodd" clip-rule="evenodd" d="M13.5231 12.6998C14.1223 12.6109 14.8942 12.5936 15.9539 12.5905C15.2002 14.4179 13.6057 15.7978 11.6423 16.2583L11.6378 16.2594C11.6476 15.4971 11.6749 14.9092 11.7496 14.4344C11.8472 13.8132 12.0141 13.4699 12.2634 13.2207C12.5185 12.9656 12.8724 12.7964 13.5231 12.6998ZM11.9703 0.343699C10.0166 -0.114566 7.9834 -0.114566 6.02975 0.343699C3.20842 1.00549 1.0055 3.20841 0.3437 6.02974C-0.114567 7.9834 -0.114567 10.0166 0.3437 11.9703C1.0055 14.7916 3.20842 16.9945 6.02975 17.6563C7.67069 18.0412 9.36774 18.1028 11.0266 17.8411C11.3428 17.7913 11.6575 17.7297 11.9703 17.6563C14.7916 16.9945 16.9945 14.7916 17.6563 11.9703C18.1146 10.0166 18.1146 7.9834 17.6563 6.02975C16.9945 3.20842 14.7916 1.00549 11.9703 0.343699ZM5.55374 6.12812C5.55374 5.8109 5.8109 5.55374 6.12812 5.55374H8.99997C9.31719 5.55374 9.57435 5.8109 9.57435 6.12812C9.57435 6.44533 9.31719 6.70249 8.99997 6.70249H6.12812C5.8109 6.70249 5.55374 6.44533 5.55374 6.12812ZM5.55374 8.99997C5.55374 8.68276 5.8109 8.4256 6.12812 8.4256H10.9145C11.2318 8.4256 11.4889 8.68276 11.4889 8.99997C11.4889 9.31719 11.2318 9.57435 10.9145 9.57435H6.12812C5.8109 9.57435 5.55374 9.31719 5.55374 8.99997Z" fill="#FD6C23"/>
</svg>
