<svg width="18" height="18" viewBox="0 0 18 18" fill="none" xmlns="http://www.w3.org/2000/svg">
<path d="M3.11069 0.152049C3.43316 0.0513558 3.76773 0 4.10456 0C5.72359 0 6.92309 1.42565 6.92308 3.03791L6.92308 6.65441C6.92308 8.26666 5.72358 9.69231 4.10456 9.69231C3.76772 9.69231 3.43316 9.64095 3.11069 9.54026L2.86418 9.46329C2.78002 9.43701 2.69721 9.40786 2.61584 9.37596C3.9001 11.9841 6.01591 14.0999 8.62404 15.3842C8.59214 15.3028 8.56299 15.22 8.53671 15.1358L8.45974 14.8893C8.35905 14.5668 8.30769 14.2323 8.30769 13.8954C8.30769 12.2764 9.73335 11.0769 11.3456 11.0769H14.9621C16.5743 11.0769 18 12.2764 18 13.8954C18 14.2323 17.9486 14.5668 17.8479 14.8893L17.771 15.1358C17.3226 16.5717 16.0401 17.6116 14.506 17.882C13.6128 18.0393 12.6949 18.0394 11.8017 17.882C11.7665 17.8758 11.7315 17.8692 11.6966 17.8622C5.84285 16.7359 1.26404 12.1571 0.137821 6.30329C0.130829 6.26843 0.124235 6.23344 0.118045 6.19831C-0.0393489 5.3051 -0.0393484 4.38721 0.118046 3.494C0.388375 1.95989 1.42827 0.677386 2.86419 0.229021L3.11069 0.152049Z" fill="#F0CB23"/>
<path d="M10.1128 1.59113C11.8866 1.08573 13.8181 1.50846 15.1548 2.84518C16.4916 4.1819 16.9143 6.11346 16.4089 7.88724C16.3041 8.25495 16.5173 8.63798 16.885 8.74275C17.2527 8.84753 17.6357 8.63437 17.7405 8.26665C18.3727 6.04776 17.8531 3.58533 16.1339 1.86611C14.4147 0.14689 11.9523 -0.372713 9.73337 0.259511C9.36565 0.364284 9.15249 0.747311 9.25726 1.11503C9.36204 1.48274 9.74506 1.6959 10.1128 1.59113Z" fill="#F0CB23"/>
<path d="M11.8462 4.10736C12.3133 4.01432 12.905 4.1712 13.3669 4.63309C13.8288 5.09498 13.9857 5.68667 13.8927 6.15381C13.818 6.52879 14.0614 6.89332 14.4364 6.96801C14.8114 7.0427 15.1759 6.79926 15.2506 6.42428C15.4416 5.46535 15.1065 4.41451 14.346 3.65402C13.5855 2.89353 12.5347 2.55843 11.5757 2.74942C11.2008 2.82411 10.9573 3.18864 11.032 3.56363C11.1067 3.93861 11.4712 4.18205 11.8462 4.10736Z" fill="#F0CB23"/>
</svg>
