<svg width="64" height="64" viewBox="0 0 64 64" fill="none" xmlns="http://www.w3.org/2000/svg">
<g clip-path="url(#clip0_1_11785)">
<path d="M31.9999 15.5C25.3736 15.5 20.0019 20.8278 20.0019 27.4C20.0019 33.9722 25.3736 39.3 31.9999 39.3C38.6262 39.3 43.9978 33.9722 43.9978 27.4C43.9978 20.8278 38.6262 15.5 31.9999 15.5Z" fill="#9D9D9D"/>
<path d="M39.0803 44.5942C34.3897 43.8517 29.6101 43.8517 24.9195 44.5942L24.4167 44.6738C17.8075 45.7199 12.9443 51.3743 12.9443 58.0125C12.9443 61.5954 15.8728 64.5 19.4852 64.5H44.5145C48.127 64.5 51.0555 61.5954 51.0555 58.0125C51.0555 51.3743 46.1923 45.7199 39.5831 44.6738L39.0803 44.5942Z" fill="#9D9D9D"/>
</g>
<rect x="0.75" y="0.75" width="62.5" height="62.5" rx="31.25" stroke="#9E9EA5" stroke-width="1.5"/>
<defs>
<clipPath id="clip0_1_11785">
<rect width="64" height="64" rx="32" fill="white"/>
</clipPath>
</defs>
</svg>
