<svg width="18" height="18" viewBox="0 0 18 18" fill="none" xmlns="http://www.w3.org/2000/svg">
<path fill-rule="evenodd" clip-rule="evenodd" d="M6.02975 0.343699C7.9834 -0.114566 10.0166 -0.114566 11.9703 0.343699C14.7916 1.00549 16.9945 3.20842 17.6563 6.02975C18.1146 7.9834 18.1146 10.0166 17.6563 11.9703C16.9945 14.7916 14.7916 16.9945 11.9703 17.6563C10.0166 18.1146 7.9834 18.1146 6.02975 17.6563C3.20842 16.9945 1.0055 14.7916 0.3437 11.9703C-0.114567 10.0166 -0.114567 7.9834 0.3437 6.02974C1.0055 3.20841 3.20842 1.00549 6.02975 0.343699ZM3.97656 8.89744C3.97656 8.67087 4.16024 8.48719 4.38682 8.48719H6.02785C6.25442 8.48719 6.4381 8.67087 6.4381 8.89744V12.5898C6.4381 12.8163 6.25442 13 6.02784 13H4.38682C4.16024 13 3.97656 12.8163 3.97656 12.5898V8.89744ZM5.20697 4.99996C4.52723 4.99996 3.9762 5.55099 3.9762 6.23073C3.9762 6.91046 4.52723 7.4615 5.20697 7.4615C5.8867 7.4615 6.43774 6.91046 6.43774 6.23073C6.43774 5.55099 5.8867 4.99996 5.20697 4.99996ZM7.4641 5.41021C7.4641 5.18364 7.64778 4.99996 7.87436 4.99996H11.3615C12.3245 4.99996 13.1051 5.78059 13.1051 6.74355C13.1051 6.82078 13.1001 6.89683 13.0904 6.97141C13.663 7.46051 14.0261 8.18784 14.0261 8.99997C14.0261 9.812 13.6631 10.5393 13.0906 11.0284C13.1003 11.103 13.1054 11.1791 13.1054 11.2564C13.1054 12.2194 12.3247 13 11.3618 13H7.87459C7.64801 13 7.46433 12.8163 7.46433 12.5897V9.92308C7.46433 9.6965 7.64801 9.51282 7.87459 9.51282H11.3618C11.9313 9.51282 12.4371 9.78589 12.7553 10.2083C13.0358 9.88444 13.2055 9.46203 13.2055 8.99997C13.2055 8.53785 13.0358 8.11538 12.7551 7.79155C12.437 8.214 11.9311 8.48714 11.3615 8.48714H7.87436C7.64778 8.48714 7.4641 8.30346 7.4641 8.07688V5.41021Z" fill="#51C192"/>
</svg>
